<svg width="21" height="20" viewBox="0 0 21 20" fill="none" xmlns="http://www.w3.org/2000/svg">
<g clip-path="url(#clip0_2_58)">
<path fill-rule="evenodd" clip-rule="evenodd" d="M18.2547 17.0578L14.343 13.1469C16.6983 10.3192 16.4129 6.13911 13.6951 3.65779C10.9774 1.17647 6.78862 1.27167 4.18639 3.87389C1.58417 6.47612 1.48897 10.6649 3.97029 13.3826C6.45161 16.1004 10.6317 16.3858 13.4594 14.0305L17.3703 17.9422C17.6145 18.1864 18.0105 18.1864 18.2547 17.9422C18.4989 17.698 18.4989 17.302 18.2547 17.0578ZM3.4375 8.75C3.4375 5.6434 5.9559 3.125 9.0625 3.125C12.1691 3.125 14.6875 5.6434 14.6875 8.75C14.6875 11.8566 12.1691 14.375 9.0625 14.375C5.95733 14.3716 3.44094 11.8552 3.4375 8.75Z" fill="#996E4D"/>
</g>
<defs>
<clipPath id="clip0_2_58">
<rect width="20" height="20" fill="white" transform="translate(0.3125)"/>
</clipPath>
</defs>
</svg>
